{
  "accessors": [
    {
      "bufferView": 2,
      "componentType": 5126,
      "count": 2419,
      "max": [
        24.094339370727539,
        17.288700103759766,
        267.94387817382812
      ],
      "min": [
        -1.0059399604797363,
        -5.4291000366210938,
        -47.8896484375
      ],
      "type": "VEC3"
    },
    {
      "bufferView": 2,
      "byteOffset": 29028,
      "componentType": 5126,
      "count": 2419,
      "max": [
        1,
        1,
        1
      ],
      "min": [
        -1,
        -1,
        -1
      ],
      "type": "VEC3"
    },
    {
      "bufferView": 1,
      "componentType": 5126,
      "count": 2419,
      "max": [
        0.99712997674942017,
        1.0013300180435181
      ],
      "min": [
        -0.0022100000642240047,
        -0.024019999429583549
      ],
      "type": "VEC2"
    },
    {
      "bufferView": 1,
      "byteOffset": 19352,
      "componentType": 5126,
      "count": 2419,
      "max": [
        0,
        0
      ],
      "min": [
        0,
        0
      ],
      "type": "VEC2"
    },
    {
      "bufferView": 1,
      "byteOffset": 38704,
      "componentType": 5126,
      "count": 2419,
      "max": [
        0,
        0
      ],
      "min": [
        0,
        0
      ],
      "type": "VEC2"
    },
    {
      "bufferView": 0,
      "componentType": 5125,
      "count": 4125,
      "max": [
        2418
      ],
      "min": [
        0
      ],
      "type": "SCALAR"
    },
    {
      "bufferView": 2,
      "byteOffset": 58056,
      "componentType": 5126,
      "count": 107,
      "max": [
        22.209230422973633,
        16.925710678100586,
        235.3448486328125
      ],
      "min": [
        0.99133998155593872,
        -5.0661101341247559,
        -47.8896484375
      ],
      "type": "VEC3"
    },
    {
      "bufferView": 2,
      "byteOffset": 59340,
      "componentType": 5126,
      "count": 107,
      "max": [
        -0,
        1,
        0
      ],
      "min": [
        -0,
        -1,
        0
      ],
      "type": "VEC3"
    },
    {
      "bufferView": 1,
      "byteOffset": 58056,
      "componentType": 5126,
      "count": 107,
      "max": [
        0.99029999971389771,
        1.0019700527191162
      ],
      "min": [
        -0.0079600000753998756,
        0.029640000313520432
      ],
      "type": "VEC2"
    },
    {
      "bufferView": 1,
      "byteOffset": 58912,
      "componentType": 5126,
      "count": 107,
      "max": [
        0,
        0
      ],
      "min": [
        0,
        0
      ],
      "type": "VEC2"
    },
    {
      "bufferView": 1,
      "byteOffset": 59768,
      "componentType": 5126,
      "count": 107,
      "max": [
        0,
        0
      ],
      "min": [
        0,
        0
      ],
      "type": "VEC2"
    },
    {
      "bufferView": 0,
      "byteOffset": 16500,
      "componentType": 5125,
      "count": 393,
      "max": [
        106
      ],
      "min": [
        0
      ],
      "type": "SCALAR"
    },
    {
      "bufferView": 2,
      "byteOffset": 60624,
      "componentType": 5126,
      "count": 688,
      "max": [
        22.328649520874023,
        17.049489974975586,
        301.49114990234375
      ],
      "min": [
        -1,
        -5.1898899078369141,
        -1
      ],
      "type": "VEC3"
    },
    {
      "bufferView": 2,
      "byteOffset": 68880,
      "componentType": 5126,
      "count": 688,
      "max": [
        1,
        1,
        1
      ],
      "min": [
        -1,
        -1,
        -1
      ],
      "type": "VEC3"
    },
    {
      "bufferView": 1,
      "byteOffset": 60624,
      "componentType": 5126,
      "count": 688,
      "max": [
        1.5697799921035767,
        1
      ],
      "min": [
        -0.56669002771377563,
        0
      ],
      "type": "VEC2"
    },
    {
      "bufferView": 1,
      "byteOffset": 66128,
      "componentType": 5126,
      "count": 688,
      "max": [
        0,
        0
      ],
      "min": [
        0,
        0
      ],
      "type": "VEC2"
    },
    {
      "bufferView": 1,
      "byteOffset": 71632,
      "componentType": 5126,
      "count": 688,
      "max": [
        0,
        0
      ],
      "min": [
        0,
        0
      ],
      "type": "VEC2"
    },
    {
      "bufferView": 0,
      "byteOffset": 18072,
      "componentType": 5125,
      "count": 1032,
      "max": [
        687
      ],
      "min": [
        0
      ],
      "type": "SCALAR"
    },
    {
      "bufferView": 2,
      "byteOffset": 77136,
      "componentType": 5126,
      "count": 121,
      "max": [
        22.559450149536133,
        17.288700103759766,
        323.98980712890625
      ],
      "min": [
        0.64112001657485962,
        -5.4291000366210938,
        248.86346435546875
      ],
      "type": "VEC3"
    },
    {
      "bufferView": 2,
      "byteOffset": 78588,
      "componentType": 5126,
      "count": 121,
      "max": [
        1,
        1,
        1
      ],
      "min": [
        -1,
        -1,
        -1
      ],
      "type": "VEC3"
    },
    {
      "bufferView": 1,
      "byteOffset": 77136,
      "componentType": 5126,
      "count": 121,
      "max": [
        4.3716697692871094,
        2.4084999561309814
      ],
      "min": [
        -3.4250500202178955,
        -1.3596199750900269
      ],
      "type": "VEC2"
    },
    {
      "bufferView": 1,
      "byteOffset": 78104,
      "componentType": 5126,
      "count": 121,
      "max": [
        0,
        0
      ],
      "min": [
        0,
        0
      ],
      "type": "VEC2"
    },
    {
      "bufferView": 1,
      "byteOffset": 79072,
      "componentType": 5126,
      "count": 121,
      "max": [
        0,
        0
      ],
      "min": [
        0,
        0
      ],
      "type": "VEC2"
    },
    {
      "bufferView": 0,
      "byteOffset": 22200,
      "componentType": 5125,
      "count": 216,
      "max": [
        120
      ],
      "min": [
        0
      ],
      "type": "SCALAR"
    },
    {
      "bufferView": 2,
      "byteOffset": 80040,
      "componentType": 5126,
      "count": 5,
      "max": [
        0.99133998155593872,
        16.925710678100586,
        235.3448486328125
      ],
      "min": [
        0.99133998155593872,
        -5.0661101341247559,
        -47.8896484375
      ],
      "type": "VEC3"
    },
    {
      "bufferView": 2,
      "byteOffset": 80100,
      "componentType": 5126,
      "count": 5,
      "max": [
        -1,
        -0,
        -0
      ],
      "min": [
        -1,
        -0,
        -0
      ],
      "type": "VEC3"
    },
    {
      "bufferView": 1,
      "byteOffset": 80040,
      "componentType": 5126,
      "count": 5,
      "max": [
        0.99712997674942017,
        1.0013300180435181
      ],
      "min": [
        -0.0022100000642240047,
        -0.0037799999117851257
      ],
      "type": "VEC2"
    },
    {
      "bufferView": 1,
      "byteOffset": 80080,
      "componentType": 5126,
      "count": 5,
      "max": [
        0,
        0
      ],
      "min": [
        0,
        0
      ],
      "type": "VEC2"
    },
    {
      "bufferView": 1,
      "byteOffset": 80120,
      "componentType": 5126,
      "count": 5,
      "max": [
        0,
        0
      ],
      "min": [
        0,
        0
      ],
      "type": "VEC2"
    },
    {
      "bufferView": 0,
      "byteOffset": 23064,
      "componentType": 5125,
      "count": 9,
      "max": [
        4
      ],
      "min": [
        0
      ],
      "type": "SCALAR"
    }
  ],
  "asset": {
    "extras": {
      "author": "quizzes (https://sketchfab.com/quizzes)",
      "license": "CC-BY-4.0 (http://creativecommons.org/licenses/by/4.0/)",
      "source": "https://sketchfab.com/3d-models/khrushchevka-4c759da8b8914ec4924f68ee9cc3cbd5",
      "title": "Khrushchevka"
    },
    "generator": "Sketchfab-8.0.0",
    "version": "2.0"
  },
  "bufferViews": [
    {
      "buffer": 0,
      "byteLength": 23100,
      "byteOffset": 0,
      "name": "floatBufferViews",
      "target": 34963
    },
    {
      "buffer": 0,
      "byteLength": 80160,
      "byteOffset": 23100,
      "byteStride": 8,
      "name": "floatBufferViews",
      "target": 34962
    },
    {
      "buffer": 0,
      "byteLength": 80160,
      "byteOffset": 103260,
      "byteStride": 12,
      "name": "floatBufferViews",
      "target": 34962
    }
  ],
  "buffers": [
    {
      "byteLength": 183420,
      "uri": "scene.bin"
    }
  ],
  "images": [
    {
      "uri": "textures/Material.001_baseColor.jpeg"
    },
    {
      "uri": "textures/Material.002_baseColor.jpeg"
    },
    {
      "uri": "textures/Material.003_baseColor.jpeg"
    },
    {
      "uri": "textures/Material.004_baseColor.jpeg"
    },
    {
      "uri": "textures/back_baseColor.jpeg"
    }
  ],
  "materials": [
    {
      "doubleSided": true,
      "name": "Material.001",
      "pbrMetallicRoughness": {
        "baseColorFactor": [
          1,
          1,
          1,
          1
        ],
        "baseColorTexture": {
          "index": 0,
          "texCoord": 0
        },
        "metallicFactor": 1,
        "roughnessFactor": 0.40429773870504127
      }
    },
    {
      "doubleSided": true,
      "name": "Material.002",
      "pbrMetallicRoughness": {
        "baseColorFactor": [
          1,
          1,
          1,
          1
        ],
        "baseColorTexture": {
          "index": 1,
          "texCoord": 0
        },
        "metallicFactor": 1,
        "roughnessFactor": 0.50136263865344932
      }
    },
    {
      "doubleSided": true,
      "name": "Material.003",
      "pbrMetallicRoughness": {
        "baseColorFactor": [
          0.54266251857925507,
          0.54266251857925507,
          0.54266251857925507,
          1
        ],
        "baseColorTexture": {
          "index": 2,
          "texCoord": 0
        },
        "metallicFactor": 0.8445493110320853,
        "roughnessFactor": 0.38186578330753729
      }
    },
    {
      "doubleSided": true,
      "name": "Material.004",
      "pbrMetallicRoughness": {
        "baseColorFactor": [
          1,
          1,
          1,
          1
        ],
        "baseColorTexture": {
          "index": 3,
          "texCoord": 0
        },
        "metallicFactor": 1,
        "roughnessFactor": 0.31268339337043038
      }
    },
    {
      "doubleSided": true,
      "name": "back",
      "pbrMetallicRoughness": {
        "baseColorFactor": [
          1,
          1,
          1,
          1
        ],
        "baseColorTexture": {
          "index": 4,
          "texCoord": 0
        },
        "metallicFactor": 1,
        "roughnessFactor": 0.41687635505724252
      }
    }
  ],
  "meshes": [
    {
      "name": "Cube.003_0",
      "primitives": [
        {
          "attributes": {
            "NORMAL": 1,
            "POSITION": 0,
            "TEXCOORD_0": 2,
            "TEXCOORD_1": 3,
            "TEXCOORD_2": 4
          },
          "indices": 5,
          "material": 0,
          "mode": 4
        }
      ]
    },
    {
      "name": "Cube.003_1",
      "primitives": [
        {
          "attributes": {
            "NORMAL": 7,
            "POSITION": 6,
            "TEXCOORD_0": 8,
            "TEXCOORD_1": 9,
            "TEXCOORD_2": 10
          },
          "indices": 11,
          "material": 1,
          "mode": 4
        }
      ]
    },
    {
      "name": "Cube.003_2",
      "primitives": [
        {
          "attributes": {
            "NORMAL": 13,
            "POSITION": 12,
            "TEXCOORD_0": 14,
            "TEXCOORD_1": 15,
            "TEXCOORD_2": 16
          },
          "indices": 17,
          "material": 2,
          "mode": 4
        }
      ]
    },
    {
      "name": "Cube.003_3",
      "primitives": [
        {
          "attributes": {
            "NORMAL": 19,
            "POSITION": 18,
            "TEXCOORD_0": 20,
            "TEXCOORD_1": 21,
            "TEXCOORD_2": 22
          },
          "indices": 23,
          "material": 3,
          "mode": 4
        }
      ]
    },
    {
      "name": "Cube.003_4",
      "primitives": [
        {
          "attributes": {
            "NORMAL": 25,
            "POSITION": 24,
            "TEXCOORD_0": 26,
            "TEXCOORD_1": 27,
            "TEXCOORD_2": 28
          },
          "indices": 29,
          "material": 4,
          "mode": 4
        }
      ]
    }
  ],
  "nodes": [
    {
      "children": [
        1
      ],
      "name": "RootNode (gltf orientation matrix)",
      "rotation": [
        -0.70710678118654746,
        -0,
        -0,
        0.70710678118654757
      ]
    },
    {
      "children": [
        2
      ],
      "name": "RootNode (model correction matrix)"
    },
    {
      "children": [
        3
      ],
      "name": "Root"
    },
    {
      "children": [
        4,
        5,
        6,
        7,
        8
      ],
      "matrix": [
        0.21922000000000003,
        0,
        0,
        0,
        0,
        0.58476000000000006,
        0,
        0,
        0,
        0,
        0.017620000000000004,
        0,
        -2.5562899999999997,
        -4.273340000000001,
        6.3118999999999996,
        1
      ],
      "name": "Cube.003"
    },
    {
      "mesh": 0,
      "name": "Cube.003_0"
    },
    {
      "mesh": 1,
      "name": "Cube.003_1"
    },
    {
      "mesh": 2,
      "name": "Cube.003_2"
    },
    {
      "mesh": 3,
      "name": "Cube.003_3"
    },
    {
      "mesh": 4,
      "name": "Cube.003_4"
    }
  ],
  "samplers": [
    {
      "magFilter": 9729,
      "minFilter": 9987,
      "wrapS": 10497,
      "wrapT": 10497
    }
  ],
  "scene": 0,
  "scenes": [
    {
      "name": "OSG_Scene",
      "nodes": [
        0
      ]
    }
  ],
  "textures": [
    {
      "sampler": 0,
      "source": 0
    },
    {
      "sampler": 0,
      "source": 1
    },
    {
      "sampler": 0,
      "source": 2
    },
    {
      "sampler": 0,
      "source": 3
    },
    {
      "sampler": 0,
      "source": 4
    }
  ]
}

