{
  "accessors": [
    {
      "bufferView": 2,
      "componentType": 5126,
      "count": 786,
      "max": [
        0.53154522180557251,
        10.806064605712891,
        0.58556115627288818
      ],
      "min": [
        -0.53154522180557251,
        -11.54770565032959,
        -0.58556115627288818
      ],
      "type": "VEC3"
    },
    {
      "bufferView": 2,
      "byteOffset": 9432,
      "componentType": 5126,
      "count": 786,
      "max": [
        1,
        1,
        1
      ],
      "min": [
        -1,
        -1,
        -1
      ],
      "type": "VEC3"
    },
    {
      "bufferView": 3,
      "componentType": 5126,
      "count": 786,
      "max": [
        1,
        0.057069554924964905,
        1,
        1
      ],
      "min": [
        -0.28483763337135315,
        -0.055519793182611465,
        -1,
        1
      ],
      "type": "VEC4"
    },
    {
      "bufferView": 0,
      "componentType": 5125,
      "count": 1920,
      "max": [
        785
      ],
      "min": [
        0
      ],
      "type": "SCALAR"
    },
    {
      "bufferView": 2,
      "byteOffset": 18864,
      "componentType": 5126,
      "count": 4,
      "max": [
        0.51658141613006592,
        0.0043501509353518486,
        0.36469957232475281
      ],
      "min": [
        -0.49765276908874512,
        0.0043501509353518486,
        -0.35371628403663635
      ],
      "type": "VEC3"
    },
    {
      "bufferView": 2,
      "byteOffset": 18912,
      "componentType": 5126,
      "count": 4,
      "max": [
        0,
        1,
        0
      ],
      "min": [
        0,
        1,
        0
      ],
      "type": "VEC3"
    },
    {
      "bufferView": 3,
      "byteOffset": 12576,
      "componentType": 5126,
      "count": 4,
      "max": [
        1,
        0,
        0,
        1
      ],
      "min": [
        1,
        0,
        0,
        1
      ],
      "type": "VEC4"
    },
    {
      "bufferView": 1,
      "componentType": 5126,
      "count": 4,
      "max": [
        2.7394993305206299,
        2.380671501159668
      ],
      "min": [
        -1.7394993305206299,
        -1.3806716203689575
      ],
      "type": "VEC2"
    },
    {
      "bufferView": 0,
      "byteOffset": 7680,
      "componentType": 5125,
      "count": 6,
      "max": [
        3
      ],
      "min": [
        0
      ],
      "type": "SCALAR"
    },
    {
      "bufferView": 2,
      "byteOffset": 18960,
      "componentType": 5126,
      "count": 114,
      "max": [
        0.5,
        0.5,
        0.5
      ],
      "min": [
        -0.5,
        -0.5,
        -0.5
      ],
      "type": "VEC3"
    },
    {
      "bufferView": 2,
      "byteOffset": 20328,
      "componentType": 5126,
      "count": 114,
      "max": [
        1,
        1,
        1
      ],
      "min": [
        -1,
        -1,
        -1
      ],
      "type": "VEC3"
    },
    {
      "bufferView": 3,
      "byteOffset": 12640,
      "componentType": 5126,
      "count": 114,
      "max": [
        1,
        0.22493286430835724,
        0.99999654293060303,
        1
      ],
      "min": [
        0,
        -0.085222601890563965,
        -1,
        1
      ],
      "type": "VEC4"
    },
    {
      "bufferView": 0,
      "byteOffset": 7704,
      "componentType": 5125,
      "count": 384,
      "max": [
        113
      ],
      "min": [
        0
      ],
      "type": "SCALAR"
    },
    {
      "bufferView": 2,
      "byteOffset": 21696,
      "componentType": 5126,
      "count": 786,
      "max": [
        0.53154522180557251,
        10.806064605712891,
        0.58556115627288818
      ],
      "min": [
        -0.53154522180557251,
        -11.54770565032959,
        -0.58556115627288818
      ],
      "type": "VEC3"
    },
    {
      "bufferView": 2,
      "byteOffset": 31128,
      "componentType": 5126,
      "count": 786,
      "max": [
        1,
        1,
        1
      ],
      "min": [
        -1,
        -1,
        -1
      ],
      "type": "VEC3"
    },
    {
      "bufferView": 3,
      "byteOffset": 14464,
      "componentType": 5126,
      "count": 786,
      "max": [
        1,
        0.057069554924964905,
        1,
        1
      ],
      "min": [
        -0.28483763337135315,
        -0.055519793182611465,
        -1,
        1
      ],
      "type": "VEC4"
    },
    {
      "bufferView": 0,
      "byteOffset": 9240,
      "componentType": 5125,
      "count": 1920,
      "max": [
        785
      ],
      "min": [
        0
      ],
      "type": "SCALAR"
    },
    {
      "bufferView": 2,
      "byteOffset": 40560,
      "componentType": 5126,
      "count": 4,
      "max": [
        0.51658141613006592,
        0.0043501509353518486,
        0.36469957232475281
      ],
      "min": [
        -0.49765276908874512,
        0.0043501509353518486,
        -0.35371628403663635
      ],
      "type": "VEC3"
    },
    {
      "bufferView": 2,
      "byteOffset": 40608,
      "componentType": 5126,
      "count": 4,
      "max": [
        0,
        1,
        0
      ],
      "min": [
        0,
        1,
        0
      ],
      "type": "VEC3"
    },
    {
      "bufferView": 3,
      "byteOffset": 27040,
      "componentType": 5126,
      "count": 4,
      "max": [
        1,
        0,
        0,
        1
      ],
      "min": [
        1,
        0,
        0,
        1
      ],
      "type": "VEC4"
    },
    {
      "bufferView": 1,
      "byteOffset": 32,
      "componentType": 5126,
      "count": 4,
      "max": [
        2.7394993305206299,
        2.380671501159668
      ],
      "min": [
        -1.7394993305206299,
        -1.3806716203689575
      ],
      "type": "VEC2"
    },
    {
      "bufferView": 0,
      "byteOffset": 16920,
      "componentType": 5125,
      "count": 6,
      "max": [
        3
      ],
      "min": [
        0
      ],
      "type": "SCALAR"
    }
  ],
  "asset": {
    "extras": {
      "author": "Alex321432 (https://sketchfab.com/killercws321432)",
      "license": "CC-BY-4.0 (http://creativecommons.org/licenses/by/4.0/)",
      "source": "https://sketchfab.com/models/50901b0cc91b4e04a18ecd13bc379a90",
      "title": "Chainlink Fence - Low Poly"
    },
    "generator": "Sketchfab-3.20.7",
    "version": "2.0"
  },
  "bufferViews": [
    {
      "buffer": 0,
      "byteLength": 16944,
      "byteOffset": 0,
      "name": "floatBufferViews",
      "target": 34963
    },
    {
      "buffer": 0,
      "byteLength": 64,
      "byteOffset": 16944,
      "byteStride": 8,
      "name": "floatBufferViews",
      "target": 34962
    },
    {
      "buffer": 0,
      "byteLength": 40656,
      "byteOffset": 17008,
      "byteStride": 12,
      "name": "floatBufferViews",
      "target": 34962
    },
    {
      "buffer": 0,
      "byteLength": 27104,
      "byteOffset": 57664,
      "byteStride": 16,
      "name": "floatBufferViews",
      "target": 34962
    }
  ],
  "buffers": [
    {
      "byteLength": 84768,
      "uri": "scene.bin"
    }
  ],
  "extensionsRequired": [
    "KHR_materials_pbrSpecularGlossiness"
  ],
  "extensionsUsed": [
    "KHR_materials_pbrSpecularGlossiness"
  ],
  "images": [
    {
      "uri": "textures/phong6_diffuse.png"
    },
    {
      "uri": "textures/phong6_occlusion.png"
    },
    {
      "uri": "textures/phong6_normal.png"
    },
    {
      "uri": "textures/phong6_specularGlossiness.png"
    }
  ],
  "materials": [
    {
      "doubleSided": false,
      "emissiveFactor": [
        0,
        0,
        0
      ],
      "extensions": {
        "KHR_materials_pbrSpecularGlossiness": {
          "diffuseFactor": [
            0,
            0,
            0,
            1
          ],
          "glossinessFactor": 0.73999999999999999,
          "specularFactor": [
            0.29999999999999999,
            0.29999999999999999,
            0.29999999999999999
          ]
        }
      },
      "name": "phong5"
    },
    {
      "alphaMode": "BLEND",
      "doubleSided": false,
      "emissiveFactor": [
        0,
        0,
        0
      ],
      "extensions": {
        "KHR_materials_pbrSpecularGlossiness": {
          "diffuseFactor": [
            1,
            1,
            1,
            1
          ],
          "diffuseTexture": {
            "index": 0,
            "texCoord": 0
          },
          "glossinessFactor": 0,
          "specularFactor": [
            1,
            1,
            1
          ],
          "specularGlossinessTexture": {
            "index": 3,
            "texCoord": 0
          }
        }
      },
      "name": "phong6",
      "normalTexture": {
        "index": 2,
        "scale": 0.27000000000000002,
        "texCoord": 0
      },
      "occlusionTexture": {
        "index": 1,
        "strength": 1,
        "texCoord": 0
      }
    }
  ],
  "meshes": [
    {
      "name": "pCube1_phong5_0",
      "primitives": [
        {
          "attributes": {
            "NORMAL": 1,
            "POSITION": 0,
            "TANGENT": 2
          },
          "indices": 3,
          "material": 0,
          "mode": 4
        }
      ]
    },
    {
      "name": "pPlane1_phong6_0",
      "primitives": [
        {
          "attributes": {
            "NORMAL": 5,
            "POSITION": 4,
            "TANGENT": 6,
            "TEXCOORD_0": 7
          },
          "indices": 8,
          "material": 1,
          "mode": 4
        }
      ]
    },
    {
      "name": "pCube2_phong5_0",
      "primitives": [
        {
          "attributes": {
            "NORMAL": 10,
            "POSITION": 9,
            "TANGENT": 11
          },
          "indices": 12,
          "material": 0,
          "mode": 4
        }
      ]
    },
    {
      "name": "pCube3_phong5_0",
      "primitives": [
        {
          "attributes": {
            "NORMAL": 14,
            "POSITION": 13,
            "TANGENT": 15
          },
          "indices": 16,
          "material": 0,
          "mode": 4
        }
      ]
    },
    {
      "name": "pPlane2_phong6_0",
      "primitives": [
        {
          "attributes": {
            "NORMAL": 18,
            "POSITION": 17,
            "TANGENT": 19,
            "TEXCOORD_0": 20
          },
          "indices": 21,
          "material": 1,
          "mode": 4
        }
      ]
    }
  ],
  "nodes": [
    {
      "children": [
        1
      ],
      "name": "RootNode (gltf orientation matrix)",
      "rotation": [
        -0.70710678118654746,
        -0,
        -0,
        0.70710678118654757
      ]
    },
    {
      "children": [
        2
      ],
      "name": "RootNode (model correction matrix)"
    },
    {
      "children": [
        3
      ],
      "matrix": [
        1,
        0,
        0,
        0,
        0,
        0,
        1,
        0,
        0,
        -1,
        0,
        0,
        0,
        0,
        0,
        1
      ],
      "name": "ed01b26f74f544f7bc43c7fd4dcb8b17.fbx"
    },
    {
      "children": [
        4,
        6,
        8,
        10,
        12
      ],
      "name": "RootNode"
    },
    {
      "children": [
        5
      ],
      "matrix": [
        0.71576285362243652,
        0,
        0,
        0,
        0,
        0.71576285362243652,
        0,
        0,
        0,
        0,
        0.71576285362243652,
        0,
        -11.662537574768066,
        8.2654199600219727,
        0,
        1
      ],
      "name": "pCube1"
    },
    {
      "mesh": 0,
      "name": "pCube1_phong5_0"
    },
    {
      "children": [
        7
      ],
      "matrix": [
        23.663173675537109,
        0,
        0,
        0,
        0,
        5.2542800500570384e-15,
        23.663173675537109,
        0,
        0,
        -23.663173675537109,
        5.2542800500570384e-15,
        0,
        -0.22395631670951843,
        8.6299495697021484,
        0.38951167464256287,
        1
      ],
      "name": "pPlane1"
    },
    {
      "mesh": 1,
      "name": "pPlane1_phong6_0"
    },
    {
      "children": [
        9
      ],
      "matrix": [
        23.890567779541016,
        0,
        0,
        0,
        0,
        0.43352982401847839,
        0,
        0,
        0,
        0,
        0.47393175959587097,
        0,
        0,
        15.419322967529297,
        0,
        1
      ],
      "name": "pCube2"
    },
    {
      "mesh": 2,
      "name": "pCube2_phong5_0"
    },
    {
      "children": [
        11
      ],
      "matrix": [
        0.71576285362243652,
        0,
        0,
        0,
        0,
        0.71576285362243652,
        0,
        0,
        0,
        0,
        0.71576285362243652,
        0,
        12,
        8.2654199600219727,
        0,
        1
      ],
      "name": "pCube3"
    },
    {
      "mesh": 3,
      "name": "pCube3_phong5_0"
    },
    {
      "children": [
        13
      ],
      "matrix": [
        -23.663173675537109,
        2.8979029899414435e-15,
        2.8979029899414431e-15,
        0,
        -2.8979029899414155e-15,
        2.2067976210239561e-13,
        -23.663173675537109,
        0,
        -2.8979029899414699e-15,
        -23.663173675537109,
        -2.2067976210239561e-13,
        0,
        0.45122611522674561,
        8.6299495697021484,
        0.59759563207626343,
        1
      ],
      "name": "pPlane2"
    },
    {
      "mesh": 4,
      "name": "pPlane2_phong6_0"
    }
  ],
  "samplers": [
    {
      "magFilter": 9729,
      "minFilter": 9987,
      "wrapS": 10497,
      "wrapT": 10497
    }
  ],
  "scene": 0,
  "scenes": [
    {
      "name": "OSG_Scene",
      "nodes": [
        0
      ]
    }
  ],
  "textures": [
    {
      "sampler": 0,
      "source": 0
    },
    {
      "sampler": 0,
      "source": 1
    },
    {
      "sampler": 0,
      "source": 2
    },
    {
      "sampler": 0,
      "source": 3
    }
  ]
}

