{
  "accessors": [
    {
      "bufferView": 2,
      "componentType": 5126,
      "count": 8,
      "max": [
        0.36529681086540222,
        0.073611319065093994,
        0.5
      ],
      "min": [
        -0.36529681086540222,
        0.073611311614513397,
        -0.5
      ],
      "type": "VEC3"
    },
    {
      "bufferView": 2,
      "byteOffset": 96,
      "componentType": 5126,
      "count": 8,
      "max": [
        0.27107354998588562,
        0.97416812181472778,
        0.20899446308612823
      ],
      "min": [
        -0.27107354998588562,
        0.96148401498794556,
        -0.20899446308612823
      ],
      "type": "VEC3"
    },
    {
      "bufferView": 1,
      "componentType": 5126,
      "count": 8,
      "max": [
        1,
        1
      ],
      "min": [
        0,
        0
      ],
      "type": "VEC2"
    },
    {
      "bufferView": 0,
      "componentType": 5125,
      "count": 18,
      "max": [
        7
      ],
      "min": [
        0
      ],
      "type": "SCALAR"
    },
    {
      "bufferView": 2,
      "byteOffset": 192,
      "componentType": 5126,
      "count": 121,
      "max": [
        0.56256824731826782,
        0.1189560666680336,
        0.77001523971557617
      ],
      "min": [
        -0.56256824731826782,
        -0.045926369726657867,
        -0.77001523971557617
      ],
      "type": "VEC3"
    },
    {
      "bufferView": 2,
      "byteOffset": 1644,
      "componentType": 5126,
      "count": 121,
      "max": [
        1,
        0.99707341194152832,
        1
      ],
      "min": [
        -1,
        -1,
        -1
      ],
      "type": "VEC3"
    },
    {
      "bufferView": 1,
      "byteOffset": 64,
      "componentType": 5126,
      "count": 121,
      "max": [
        1.0028585195541382,
        1.0028239488601685
      ],
      "min": [
        -0.0028584711253643036,
        -0.0028240201063454151
      ],
      "type": "VEC2"
    },
    {
      "bufferView": 0,
      "byteOffset": 72,
      "componentType": 5125,
      "count": 240,
      "max": [
        120
      ],
      "min": [
        0
      ],
      "type": "SCALAR"
    },
    {
      "bufferView": 2,
      "byteOffset": 3096,
      "componentType": 5126,
      "count": 59,
      "max": [
        0.56162422895431519,
        0.1189560666680336,
        0.76872313022613525
      ],
      "min": [
        -0.56162422895431519,
        0.093465819954872131,
        -0.76872313022613525
      ],
      "type": "VEC3"
    },
    {
      "bufferView": 2,
      "byteOffset": 3804,
      "componentType": 5126,
      "count": 59,
      "max": [
        0.51598960161209106,
        0.99707341194152832,
        0.43019720911979675
      ],
      "min": [
        -0.51598960161209106,
        0.85478425025939941,
        -0.43019720911979675
      ],
      "type": "VEC3"
    },
    {
      "bufferView": 1,
      "byteOffset": 1032,
      "componentType": 5126,
      "count": 59,
      "max": [
        1,
        1
      ],
      "min": [
        0,
        0
      ],
      "type": "VEC2"
    },
    {
      "bufferView": 0,
      "byteOffset": 1032,
      "componentType": 5125,
      "count": 96,
      "max": [
        58
      ],
      "min": [
        0
      ],
      "type": "SCALAR"
    },
    {
      "bufferView": 2,
      "byteOffset": 4512,
      "componentType": 5126,
      "count": 65534,
      "max": [
        115.32838439941406,
        1,
        0.97501552104949951
      ],
      "min": [
        -4.4229240417480469,
        -158.97695922851562,
        -1.2670173645019531
      ],
      "type": "VEC3"
    },
    {
      "bufferView": 2,
      "byteOffset": 790920,
      "componentType": 5126,
      "count": 65534,
      "max": [
        0.99513906240463257,
        0.9951406717300415,
        0.99043858051300049
      ],
      "min": [
        -0.99513888359069824,
        -0.99514061212539673,
        -0.99043858051300049
      ],
      "type": "VEC3"
    },
    {
      "bufferView": 1,
      "byteOffset": 1504,
      "componentType": 5126,
      "count": 65534,
      "max": [
        1.0000002384185791,
        1
      ],
      "min": [
        0,
        0
      ],
      "type": "VEC2"
    },
    {
      "bufferView": 0,
      "byteOffset": 1416,
      "componentType": 5125,
      "count": 78942,
      "max": [
        65533
      ],
      "min": [
        0
      ],
      "type": "SCALAR"
    },
    {
      "bufferView": 2,
      "byteOffset": 1577328,
      "componentType": 5126,
      "count": 65534,
      "max": [
        -2.442138671875,
        -17.185821533203125,
        0.73299336433410645
      ],
      "min": [
        -4.4037094116210938,
        -119.39096069335938,
        -1.2670145034790039
      ],
      "type": "VEC3"
    },
    {
      "bufferView": 2,
      "byteOffset": 2363736,
      "componentType": 5126,
      "count": 65534,
      "max": [
        0.95655292272567749,
        0.99044084548950195,
        0.99043858051300049
      ],
      "min": [
        -0.95655292272567749,
        -0.99044084548950195,
        -0.99043858051300049
      ],
      "type": "VEC3"
    },
    {
      "bufferView": 1,
      "byteOffset": 525776,
      "componentType": 5126,
      "count": 65534,
      "max": [
        1.0000002384185791,
        0.93750011920928955
      ],
      "min": [
        0,
        0.062499880790710449
      ],
      "type": "VEC2"
    },
    {
      "bufferView": 0,
      "byteOffset": 317184,
      "componentType": 5125,
      "count": 98298,
      "max": [
        65533
      ],
      "min": [
        0
      ],
      "type": "SCALAR"
    },
    {
      "bufferView": 2,
      "byteOffset": 3150144,
      "componentType": 5126,
      "count": 65534,
      "max": [
        81.176712036132812,
        -0.80584716796875,
        1.0000002384185791
      ],
      "min": [
        -4.4037094116210938,
        -158.95774841308594,
        -1.2670068740844727
      ],
      "type": "VEC3"
    },
    {
      "bufferView": 2,
      "byteOffset": 3936552,
      "componentType": 5126,
      "count": 65534,
      "max": [
        0.9904404878616333,
        0.99044084548950195,
        0.99043858051300049
      ],
      "min": [
        -0.9904404878616333,
        -0.99044084548950195,
        -0.99043858051300049
      ],
      "type": "VEC3"
    },
    {
      "bufferView": 1,
      "byteOffset": 1050048,
      "componentType": 5126,
      "count": 65534,
      "max": [
        1.0000002384185791,
        0.93750011920928955
      ],
      "min": [
        0,
        0.062499880790710449
      ],
      "type": "VEC2"
    },
    {
      "bufferView": 0,
      "byteOffset": 710376,
      "componentType": 5125,
      "count": 98298,
      "max": [
        65533
      ],
      "min": [
        0
      ],
      "type": "SCALAR"
    },
    {
      "bufferView": 2,
      "byteOffset": 4722960,
      "componentType": 5126,
      "count": 65534,
      "max": [
        115.30916595458984,
        -92.415206909179688,
        1.5116245746612549
      ],
      "min": [
        79.345245361328125,
        -158.95774841308594,
        -0.99999994039535522
      ],
      "type": "VEC3"
    },
    {
      "bufferView": 2,
      "byteOffset": 5509368,
      "componentType": 5126,
      "count": 65534,
      "max": [
        0.9904404878616333,
        0.99044084548950195,
        0.99043852090835571
      ],
      "min": [
        -0.9904404878616333,
        -0.99044084548950195,
        -0.99043864011764526
      ],
      "type": "VEC3"
    },
    {
      "bufferView": 1,
      "byteOffset": 1574320,
      "componentType": 5126,
      "count": 65534,
      "max": [
        1.0000002384185791,
        0.93750011920928955
      ],
      "min": [
        0,
        0.062499880790710449
      ],
      "type": "VEC2"
    },
    {
      "bufferView": 0,
      "byteOffset": 1103568,
      "componentType": 5125,
      "count": 98298,
      "max": [
        65533
      ],
      "min": [
        0
      ],
      "type": "SCALAR"
    },
    {
      "bufferView": 2,
      "byteOffset": 6295776,
      "componentType": 5126,
      "count": 65534,
      "max": [
        115.32838439941406,
        0.98078525066375732,
        1.5116316080093384
      ],
      "min": [
        -0.99999982118606567,
        -94.415206909179688,
        -1
      ],
      "type": "VEC3"
    },
    {
      "bufferView": 2,
      "byteOffset": 7082184,
      "componentType": 5126,
      "count": 65534,
      "max": [
        0.99514114856719971,
        0.99044084548950195,
        0.99043852090835571
      ],
      "min": [
        -0.99043822288513184,
        -0.99044084548950195,
        -0.99043864011764526
      ],
      "type": "VEC3"
    },
    {
      "bufferView": 1,
      "byteOffset": 2098592,
      "componentType": 5126,
      "count": 65534,
      "max": [
        1.0000002384185791,
        0.93750011920928955
      ],
      "min": [
        0,
        0
      ],
      "type": "VEC2"
    },
    {
      "bufferView": 0,
      "byteOffset": 1496760,
      "componentType": 5125,
      "count": 98298,
      "max": [
        65533
      ],
      "min": [
        0
      ],
      "type": "SCALAR"
    },
    {
      "bufferView": 2,
      "byteOffset": 7868592,
      "componentType": 5126,
      "count": 65534,
      "max": [
        107.301513671875,
        0.98078525066375732,
        1.0000003576278687
      ],
      "min": [
        4.4600000381469727,
        -0.9807853102684021,
        -1
      ],
      "type": "VEC3"
    },
    {
      "bufferView": 2,
      "byteOffset": 8655000,
      "componentType": 5126,
      "count": 65534,
      "max": [
        0.99043887853622437,
        0.956551194190979,
        0.99043846130371094
      ],
      "min": [
        -0.99043887853622437,
        -0.95655125379562378,
        -0.99043852090835571
      ],
      "type": "VEC3"
    },
    {
      "bufferView": 1,
      "byteOffset": 2622864,
      "componentType": 5126,
      "count": 65534,
      "max": [
        1.0000002384185791,
        0.93750011920928955
      ],
      "min": [
        0,
        0.062499880790710449
      ],
      "type": "VEC2"
    },
    {
      "bufferView": 0,
      "byteOffset": 1889952,
      "componentType": 5125,
      "count": 98298,
      "max": [
        65533
      ],
      "min": [
        0
      ],
      "type": "SCALAR"
    },
    {
      "bufferView": 2,
      "byteOffset": 9441408,
      "componentType": 5126,
      "count": 6754,
      "max": [
        115.66005706787109,
        0.98078525066375732,
        1.09956955909729
      ],
      "min": [
        -2.5914545059204102,
        -157.97695922851562,
        -1
      ],
      "type": "VEC3"
    },
    {
      "bufferView": 2,
      "byteOffset": 9522456,
      "componentType": 5126,
      "count": 6754,
      "max": [
        0.99513894319534302,
        0.956551194190979,
        0.99043846130371094
      ],
      "min": [
        -0.99043697118759155,
        -0.95655757188796997,
        -0.99043852090835571
      ],
      "type": "VEC3"
    },
    {
      "bufferView": 1,
      "byteOffset": 3147136,
      "componentType": 5126,
      "count": 6754,
      "max": [
        1.0000002384185791,
        0.93750011920928955
      ],
      "min": [
        0,
        0
      ],
      "type": "VEC2"
    },
    {
      "bufferView": 0,
      "byteOffset": 2283144,
      "componentType": 5125,
      "count": 10338,
      "max": [
        6753
      ],
      "min": [
        0
      ],
      "type": "SCALAR"
    }
  ],
  "asset": {
    "extras": {
      "author": "Johana-PS (https://sketchfab.com/Johana-PS)",
      "license": "CC-BY-4.0 (http://creativecommons.org/licenses/by/4.0/)",
      "source": "https://sketchfab.com/3d-models/white-photo-frame-2b72fcdffd7c445fa68573b2a2c5b940",
      "title": "White Photo Frame"
    },
    "generator": "Sketchfab-8.64.0",
    "version": "2.0"
  },
  "bufferViews": [
    {
      "buffer": 0,
      "byteLength": 2324496,
      "byteOffset": 0,
      "name": "floatBufferViews",
      "target": 34963
    },
    {
      "buffer": 0,
      "byteLength": 3201168,
      "byteOffset": 2324496,
      "byteStride": 8,
      "name": "floatBufferViews",
      "target": 34962
    },
    {
      "buffer": 0,
      "byteLength": 9603504,
      "byteOffset": 5525664,
      "byteStride": 12,
      "name": "floatBufferViews",
      "target": 34962
    }
  ],
  "buffers": [
    {
      "byteLength": 15129168,
      "uri": "scene.bin"
    }
  ],
  "images": [
    {
      "uri": "textures/mockofun-vintage-photo-editor_baseColor.png"
    }
  ],
  "materials": [
    {
      "doubleSided": true,
      "name": "material_0",
      "pbrMetallicRoughness": {
        "baseColorFactor": [
          1,
          1,
          1,
          1
        ],
        "metallicFactor": 0,
        "roughnessFactor": 0.59999999999999998
      }
    },
    {
      "doubleSided": true,
      "emissiveFactor": [
        0,
        0,
        0
      ],
      "name": "mockofun-vintage-photo-editor",
      "pbrMetallicRoughness": {
        "baseColorFactor": [
          1,
          1,
          1,
          1
        ],
        "baseColorTexture": {
          "index": 0,
          "texCoord": 0
        },
        "metallicFactor": 0,
        "roughnessFactor": 0.0490909
      }
    },
    {
      "doubleSided": true,
      "emissiveFactor": [
        0,
        0,
        0
      ],
      "name": "frame",
      "pbrMetallicRoughness": {
        "baseColorFactor": [
          0.80000000000000004,
          0.80000000000000004,
          0.80000000000000004,
          1
        ],
        "metallicFactor": 0,
        "roughnessFactor": 1
      }
    },
    {
      "doubleSided": true,
      "emissiveFactor": [
        0,
        0,
        0
      ],
      "name": "frame-darker",
      "pbrMetallicRoughness": {
        "baseColorFactor": [
          0.65286100000000002,
          0.65286100000000002,
          0.65286100000000002,
          1
        ],
        "metallicFactor": 0,
        "roughnessFactor": 0.5
      }
    }
  ],
  "meshes": [
    {
      "primitives": [
        {
          "attributes": {
            "NORMAL": 1,
            "POSITION": 0,
            "TEXCOORD_0": 2
          },
          "indices": 3,
          "material": 1,
          "mode": 4
        }
      ]
    },
    {
      "primitives": [
        {
          "attributes": {
            "NORMAL": 5,
            "POSITION": 4,
            "TEXCOORD_0": 6
          },
          "indices": 7,
          "material": 2,
          "mode": 4
        }
      ]
    },
    {
      "primitives": [
        {
          "attributes": {
            "NORMAL": 9,
            "POSITION": 8,
            "TEXCOORD_0": 10
          },
          "indices": 11,
          "material": 3,
          "mode": 4
        }
      ]
    },
    {
      "primitives": [
        {
          "attributes": {
            "NORMAL": 13,
            "POSITION": 12,
            "TEXCOORD_0": 14
          },
          "indices": 15,
          "material": 0,
          "mode": 4
        }
      ]
    },
    {
      "primitives": [
        {
          "attributes": {
            "NORMAL": 17,
            "POSITION": 16,
            "TEXCOORD_0": 18
          },
          "indices": 19,
          "material": 0,
          "mode": 4
        }
      ]
    },
    {
      "primitives": [
        {
          "attributes": {
            "NORMAL": 21,
            "POSITION": 20,
            "TEXCOORD_0": 22
          },
          "indices": 23,
          "material": 0,
          "mode": 4
        }
      ]
    },
    {
      "primitives": [
        {
          "attributes": {
            "NORMAL": 25,
            "POSITION": 24,
            "TEXCOORD_0": 26
          },
          "indices": 27,
          "material": 0,
          "mode": 4
        }
      ]
    },
    {
      "primitives": [
        {
          "attributes": {
            "NORMAL": 29,
            "POSITION": 28,
            "TEXCOORD_0": 30
          },
          "indices": 31,
          "material": 0,
          "mode": 4
        }
      ]
    },
    {
      "primitives": [
        {
          "attributes": {
            "NORMAL": 33,
            "POSITION": 32,
            "TEXCOORD_0": 34
          },
          "indices": 35,
          "material": 0,
          "mode": 4
        }
      ]
    },
    {
      "primitives": [
        {
          "attributes": {
            "NORMAL": 37,
            "POSITION": 36,
            "TEXCOORD_0": 38
          },
          "indices": 39,
          "material": 0,
          "mode": 4
        }
      ]
    }
  ],
  "nodes": [
    {
      "children": [
        1
      ],
      "name": "RootNode (gltf orientation matrix)",
      "rotation": [
        -0.70710678118654746,
        -0,
        -0,
        0.70710678118654757
      ]
    },
    {
      "children": [
        2
      ],
      "name": "RootNode (model correction matrix)"
    },
    {
      "children": [
        3
      ],
      "name": "root"
    },
    {
      "children": [
        4,
        8
      ],
      "matrix": [
        1,
        0,
        0,
        0,
        0,
        2.2204460492503131e-16,
        1,
        0,
        0,
        -1,
        2.2204460492503131e-16,
        0,
        0,
        0,
        0,
        1
      ],
      "name": "GLTF_SceneRootNode"
    },
    {
      "children": [
        5,
        6,
        7
      ],
      "matrix": [
        -2.9802322387695312e-08,
        2.9802323275873732e-08,
        -0.99999999999999911,
        0,
        0.99999999999999911,
        -2.9802322387695312e-08,
        -2.9802323275873732e-08,
        0,
        -2.9802323275873732e-08,
        -0.99999999999999911,
        -2.9802322387695312e-08,
        0,
        0,
        0,
        0,
        1
      ],
      "name": "mockofun-vintage-photo-editor_2"
    },
    {
      "mesh": 0,
      "name": ""
    },
    {
      "mesh": 1,
      "name": ""
    },
    {
      "mesh": 2,
      "name": ""
    },
    {
      "children": [
        9,
        10,
        11,
        12,
        13,
        14,
        15
      ],
      "matrix": [
        -0,
        0,
        0.0068040871992707253,
        -0,
        -0,
        -0.0068040871992707253,
        0,
        -0,
        -0.0068040871992707253,
        0,
        0,
        -0,
        0.099721647799015045,
        -0.53582632541656494,
        -0.37466856837272644,
        1
      ],
      "name": "Sphere.001_3"
    },
    {
      "mesh": 3,
      "name": ""
    },
    {
      "mesh": 4,
      "name": ""
    },
    {
      "mesh": 5,
      "name": ""
    },
    {
      "mesh": 6,
      "name": ""
    },
    {
      "mesh": 7,
      "name": ""
    },
    {
      "mesh": 8,
      "name": ""
    },
    {
      "mesh": 9,
      "name": ""
    }
  ],
  "samplers": [
    {
      "magFilter": 9729,
      "minFilter": 9987,
      "wrapS": 10497,
      "wrapT": 10497
    }
  ],
  "scene": 0,
  "scenes": [
    {
      "name": "OSG_Scene",
      "nodes": [
        0
      ]
    }
  ],
  "textures": [
    {
      "sampler": 0,
      "source": 0
    }
  ]
}

