{
  "accessors": [
    {
      "bufferView": 1,
      "componentType": 5126,
      "count": 416,
      "max": [
        0.032900001853704453,
        0.063910000026226044,
        2.9422199726104736
      ],
      "min": [
        -0.081940002739429474,
        -0.050919998437166214,
        2.7171099185943604
      ],
      "type": "VEC3"
    },
    {
      "bufferView": 1,
      "byteOffset": 4992,
      "componentType": 5126,
      "count": 416,
      "max": [
        0.98831719160079956,
        0.98831719160079956,
        0.97342526912689209
      ],
      "min": [
        -0.98831719160079956,
        -0.98831719160079956,
        -0.68570667505264282
      ],
      "type": "VEC3"
    },
    {
      "bufferView": 0,
      "componentType": 5125,
      "count": 2484,
      "max": [
        415
      ],
      "min": [
        0
      ],
      "type": "SCALAR"
    },
    {
      "bufferView": 1,
      "byteOffset": 9984,
      "componentType": 5126,
      "count": 160,
      "max": [
        1.3540699481964111,
        1.3540699481964111,
        2.4220700263977051
      ],
      "min": [
        -1.3540699481964111,
        -1.3540699481964111,
        -1
      ],
      "type": "VEC3"
    },
    {
      "bufferView": 1,
      "byteOffset": 11904,
      "componentType": 5126,
      "count": 160,
      "max": [
        0.97592830657958984,
        0.97592830657958984,
        0.68571722507476807
      ],
      "min": [
        -0.97592830657958984,
        -0.97592830657958984,
        -0.81967097520828247
      ],
      "type": "VEC3"
    },
    {
      "bufferView": 0,
      "byteOffset": 9936,
      "componentType": 5125,
      "count": 948,
      "max": [
        159
      ],
      "min": [
        0
      ],
      "type": "SCALAR"
    },
    {
      "bufferView": 1,
      "byteOffset": 13824,
      "componentType": 5126,
      "count": 5312,
      "max": [
        0.27774998545646667,
        0.26552000641822815,
        3.5240199565887451
      ],
      "min": [
        -0.32174000144004822,
        -0.26552000641822815,
        -0.73189997673034668
      ],
      "type": "VEC3"
    },
    {
      "bufferView": 1,
      "byteOffset": 77568,
      "componentType": 5126,
      "count": 5312,
      "max": [
        1,
        1,
        1
      ],
      "min": [
        -1,
        -1,
        -1
      ],
      "type": "VEC3"
    },
    {
      "bufferView": 0,
      "byteOffset": 13728,
      "componentType": 5125,
      "count": 19020,
      "max": [
        5311
      ],
      "min": [
        0
      ],
      "type": "SCALAR"
    }
  ],
  "asset": {
    "extras": {
      "author": "martn00 (https://sketchfab.com/martn00)",
      "license": "CC-BY-4.0 (http://creativecommons.org/licenses/by/4.0/)",
      "source": "https://sketchfab.com/models/65342eeec087448bb69b3a5755bd8e29",
      "title": "Lamppost"
    },
    "generator": "Sketchfab-3.18.6",
    "version": "2.0"
  },
  "bufferViews": [
    {
      "buffer": 0,
      "byteLength": 89808,
      "byteOffset": 0,
      "name": "floatBufferViews",
      "target": 34963
    },
    {
      "buffer": 0,
      "byteLength": 141312,
      "byteOffset": 89808,
      "byteStride": 12,
      "name": "floatBufferViews",
      "target": 34962
    }
  ],
  "buffers": [
    {
      "byteLength": 231120,
      "uri": "scene.bin"
    }
  ],
  "materials": [
    {
      "doubleSided": true,
      "emissiveFactor": [
        0,
        0,
        0
      ],
      "name": "Material",
      "pbrMetallicRoughness": {
        "baseColorFactor": [
          0.087139896999999994,
          0.087139896999999994,
          0.087139896999999994,
          1
        ],
        "metallicFactor": 0,
        "roughnessFactor": 0.20000000000000001
      }
    },
    {
      "alphaMode": "BLEND",
      "doubleSided": true,
      "emissiveFactor": [
        0,
        0,
        0
      ],
      "name": "Material.001",
      "pbrMetallicRoughness": {
        "baseColorFactor": [
          1,
          1,
          1,
          0.1655068311
        ],
        "roughnessFactor": 0.20000000000000001
      }
    },
    {
      "doubleSided": true,
      "emissiveFactor": [
        0.030428293350000003,
        0.031853872540000001,
        0.019229665400000002
      ],
      "name": "Material.002",
      "pbrMetallicRoughness": {
        "baseColorFactor": [
          0.5,
          0.5,
          0.5,
          1
        ],
        "roughnessFactor": 0.20000000000000001
      }
    }
  ],
  "meshes": [
    {
      "name": "Cylinder_0",
      "primitives": [
        {
          "attributes": {
            "NORMAL": 1,
            "POSITION": 0
          },
          "indices": 2,
          "material": 2,
          "mode": 4
        }
      ]
    },
    {
      "name": "Cylinder.001_0",
      "primitives": [
        {
          "attributes": {
            "NORMAL": 4,
            "POSITION": 3
          },
          "indices": 5,
          "material": 1,
          "mode": 4
        }
      ]
    },
    {
      "name": "Cylinder.002_0",
      "primitives": [
        {
          "attributes": {
            "NORMAL": 7,
            "POSITION": 6
          },
          "indices": 8,
          "material": 0,
          "mode": 4
        }
      ]
    }
  ],
  "nodes": [
    {
      "children": [
        1
      ],
      "name": "RootNode (gltf orientation matrix)",
      "rotation": [
        -0.70710678118654746,
        -0,
        -0,
        0.70710678118654757
      ]
    },
    {
      "children": [
        2
      ],
      "name": "RootNode (model correction matrix)"
    },
    {
      "children": [
        3,
        5,
        7,
        9
      ],
      "name": "Root"
    },
    {
      "children": [
        4
      ],
      "matrix": [
        -0.29086000000000006,
        0.95517000000000007,
        -0.05519000000000001,
        0,
        -0.77110000000000001,
        -0.19988000000000003,
        0.60452000000000006,
        0,
        0.56639000000000006,
        0.21839000000000003,
        0.7946700000000001,
        0,
        4.0762500000000008,
        1.00545,
        5.9038600000000008,
        1
      ],
      "name": "Lamp"
    },
    {
      "name": "Lamp"
    },
    {
      "children": [
        6
      ],
      "matrix": [
        1,
        0,
        0,
        0,
        0,
        1,
        0,
        0,
        0,
        0,
        1,
        0,
        -2.0265399999999998,
        0,
        0.92679000000000011,
        1
      ],
      "name": "Cylinder"
    },
    {
      "mesh": 0,
      "name": "Cylinder_0"
    },
    {
      "children": [
        8
      ],
      "matrix": [
        0.12273000000000002,
        0,
        0,
        0,
        0,
        0.12273000000000002,
        0,
        0,
        0,
        0,
        0.12273000000000002,
        0,
        -2.0504799999999999,
        0.0078500000000000028,
        3.77277,
        1
      ],
      "name": "Cylinder.001"
    },
    {
      "mesh": 1,
      "name": "Cylinder.001_0"
    },
    {
      "children": [
        10
      ],
      "matrix": [
        1,
        0,
        0,
        0,
        0,
        1,
        0,
        0,
        0,
        0,
        1,
        0,
        -2.0265399999999998,
        0,
        0.92679000000000011,
        1
      ],
      "name": "Cylinder.002"
    },
    {
      "mesh": 2,
      "name": "Cylinder.002_0"
    }
  ],
  "scene": 0,
  "scenes": [
    {
      "name": "OSG_Scene",
      "nodes": [
        0
      ]
    }
  ]
}

